<svg width="699" height="487" viewBox="0 0 699 487" fill="none" xmlns="http://www.w3.org/2000/svg">
<path d="M0 103.34L176 51C176 51 153.393 140.706 118.25 185.981C86.1292 227.363 13.75 270 13.75 270L0 103.34Z" fill="#45F3FE" fill-opacity="0.45"/>
<path d="M189.233 66.0566C177.164 68.4675 150.131 66.0566 135.649 66.0566C147.717 86.3081 163.075 91.2461 183.922 102.22C240.885 110.899 249.574 105.113 290.607 123.436C333.57 128.74 353.362 130.186 389.567 128.74C397.483 126.119 415.152 114.274 425.828 109.935C436.504 105.595 466.805 86.3098 507.355 56.8952C451.84 40.0207 336.467 50.1447 336.467 50.1447C336.467 50.1447 201.301 63.6457 189.233 66.0566Z" fill="#FFB735" fill-opacity="0.85"/>
<path d="M217.883 96.7839C216.575 100.017 214.556 140.166 214.147 133.939C213.737 127.712 212.72 149.874 211.542 156.921C210.364 163.969 203.733 185.531 200.516 188.828C197.943 191.466 192.002 196.949 189.352 199.36C189.1 196.193 188.967 188.628 190.454 183.712C192.312 177.567 195.012 167.791 195.884 165.635L198.137 160.067L187 173.118C183.022 177.779 173.725 189.903 171.556 192.16C169.388 194.418 156.109 212.246 154.521 213.067C152.934 213.888 149.117 214.016 149.308 210.958C149.5 207.9 157.447 190.841 159.945 187.253C161.301 185.305 166.904 176.82 171.924 169.109C169.806 171.039 164.963 175.573 162.534 178.268C159.497 181.638 153.412 191.508 152.146 193.086C150.88 194.664 138.393 212.603 136.695 214.215C134.997 215.827 125.925 225.324 128.269 214.359C130.614 203.394 136.045 195.141 137.062 192.626C138.079 190.112 143.254 173.185 146.654 168.918C150.054 164.65 158.139 149.319 159.803 147.275C161.466 145.231 153.691 154.626 151.377 157.243C149.063 159.86 141.284 170.298 140.271 171.769C139.257 173.24 130.285 185.077 128.915 185.359C127.546 185.641 120.956 185.901 129.175 173.342C137.394 160.782 145.372 145.199 146.749 142.83C148.126 140.461 154.785 131.241 153.782 129.582C152.78 127.922 150.715 131.476 147.648 133.37C144.58 135.264 137.65 139.984 135.31 140.083C132.969 140.181 131.714 138.628 132.479 136.221C133.244 133.813 140.304 123.084 143.448 119.966C146.592 116.849 165.294 102.679 169.628 99.2066C173.961 95.7345 186.023 85.5667 187.144 84.3477C188.041 83.3725 208.01 92.2322 217.883 96.7839Z" fill="#FFB735" fill-opacity="0.85"/>
<path d="M505.275 132.513C502.703 119.962 515.469 113.553 526.244 109.919C540.745 105.027 566.773 109.243 562.375 125.846C558.991 138.62 534.954 139.18 534.954 139.18C534.954 139.18 507.981 145.712 505.275 132.513Z" fill="#F5D9A4"/>
<ellipse cx="348.052" cy="257.483" rx="10.1374" ry="12.5366" fill="#13120D"/>
<path d="M524.25 60.2722C524.25 60.2722 500.359 94.6204 496.734 120.062C494.071 138.75 500.113 168.28 500.113 168.28C508.031 174.682 512.47 178.272 520.388 184.674M520.388 190.46C532.061 182.502 538.054 176.738 546.456 165.387C561.903 138.385 569.303 99.8108 567.213 90.6494C559.972 82.9346 556.11 77.9387 546.456 74.2554C542.996 72.9353 540.412 73.8254 537.284 71.8445C534.001 69.7659 533.459 67.1425 531.008 64.1296" stroke="#13120D"/>
<path d="M68.3425 223.681C50.4685 219.405 22 215.484 22 215.484L35.9993 383.764C35.9993 383.764 134.683 336.045 195.785 353.387C216.315 359.214 227.645 363.995 245.506 376.049C269.636 381.641 334.575 382.757 389.87 383.707L393.223 383.764C430.764 377.3 450.186 362.548 485.908 353.387C512.648 358.667 545.285 390.033 545.285 390.033L646.659 394.854V269.97C646.659 269.97 582.543 211.434 531.285 205.841C470.943 219.342 415.429 250.201 375.362 274.792C375.362 235.253 370.052 188 370.052 188C370.052 188 313.089 229.95 278.815 264.184C249.792 276.905 231.34 282.226 199.646 282.025C152.821 258.88 122.921 236.737 68.3425 223.681Z" fill="#45F3FE" fill-opacity="0.15"/>
<path d="M62.2728 257.965C44.3988 253.69 15.9302 249.768 15.9302 249.768L29.9295 418.049C29.9295 418.049 128.613 370.329 189.715 387.671C210.246 393.498 221.575 398.279 239.436 410.334C263.566 415.925 328.505 417.041 383.801 417.991L387.153 418.049C424.694 411.584 444.116 396.833 479.838 387.671C506.578 392.951 539.215 424.317 539.215 424.317L640.589 429.139V304.254C640.589 304.254 576.473 245.718 525.215 240.125C464.874 253.626 409.359 284.485 369.292 309.076C369.292 269.538 363.982 222.284 363.982 222.284C363.982 222.284 307.019 264.234 272.745 298.468C243.722 311.189 225.27 316.51 193.577 316.309C146.751 293.164 116.852 271.021 62.2728 257.965Z" fill="#FFB735" fill-opacity="0.45" stroke="#13120D"/>
<path opacity="0.9" d="M73.3752 129.706C73.3752 129.706 26.0672 179.853 14.4816 201.551L32.3428 406.959L133.718 396.833C133.718 396.833 183.855 388.494 216.265 385.743C358.672 410.334 537.766 419.977 537.766 419.977C576.512 417.721 614.521 418.049 636.727 410.816C638.175 405.512 636.727 401.172 630.934 396.833C605.832 385.261 598.596 384.681 576.868 381.885C549.835 381.885 523.767 385.743 523.767 385.743C523.767 385.743 577.834 374.17 617.417 358.741C630.934 352.472 636.727 340.418 633.83 336.561C623.693 330.292 580.247 342.829 580.247 342.829C569.627 344.275 494.803 372.242 494.803 372.242L545.49 323.542C545.49 323.542 555.796 311.474 551.283 305.701C546.99 300.21 533.421 305.701 533.421 305.701C533.421 305.701 461.837 357.953 408.393 372.242C386.957 377.973 374.404 379.048 352.396 381.885C248.608 368.866 143.854 376.099 143.854 376.099C144.337 322.577 127.924 192.871 73.3752 129.706Z" fill="#13120D"/>
<path d="M73.3752 129.706C73.3752 129.706 26.0672 179.853 14.4816 201.551L32.3428 406.959L133.718 396.833C133.718 396.833 183.855 388.494 216.265 385.743C358.672 410.334 537.766 419.977 537.766 419.977C576.512 417.721 614.521 418.049 636.727 410.816C638.175 405.512 636.727 401.172 630.934 396.833C605.832 385.261 598.596 384.681 576.868 381.885C549.835 381.885 523.767 385.743 523.767 385.743C523.767 385.743 577.834 374.17 617.417 358.741C630.934 352.472 636.727 340.418 633.83 336.561C623.693 330.292 580.247 342.829 580.247 342.829C569.627 344.275 494.803 372.242 494.803 372.242L545.49 323.542C545.49 323.542 555.796 311.474 551.283 305.701C546.99 300.21 533.421 305.701 533.421 305.701C533.421 305.701 461.837 357.953 408.393 372.242C386.957 377.973 374.404 379.048 352.396 381.885C248.608 368.866 143.854 376.099 143.854 376.099C144.337 322.577 127.924 192.871 73.3752 129.706Z" stroke="#13120D"/>
<path d="M25.1022 139.831C20.7576 144.653 16.8957 151.886 14.4821 153.814C14.8294 154.218 15.4475 154.779 15.4475 154.779C17.3785 154.296 23.4796 141.76 26.0677 140.795C27.0332 139.831 49.006 130.363 64.6865 127.294C78.5925 124.573 86.7448 125.699 100.892 124.884C122.18 123.656 149.648 122.473 155.441 122.473C156.406 122.473 166.061 131.634 176.681 135.009C182.505 137.186 185.93 138.365 192.128 138.867C209.156 140.245 227.368 121.026 232.678 122.473C235.373 122.993 237.261 122.729 239.436 124.401C238.954 128.741 236.852 134.18 238.954 139.831C241.274 146.072 244.512 150.458 251.022 151.886C257.488 153.304 260.34 146.4 266.952 146.099C278.055 146.582 278.055 148.028 284.814 151.403C291.923 155.622 291.677 163.621 299.296 166.833C306.59 169.909 312.157 169.611 319.571 166.833C334.096 161.39 329.992 145.002 336.949 131.152C341.221 122.646 339.939 114.442 348.052 109.454C354.523 105.475 359.783 106.473 367.361 107.043C362.051 122.473 363.017 175.995 373.637 203.961C405.497 199.139 445.71 188.567 491.424 194.799C508.827 197.172 519.142 197.689 535.353 204.443C548.542 209.938 553.576 217.672 566.731 223.248C595.829 235.581 647.347 230.481 647.347 230.481V229.516C647.347 229.516 595.829 234.617 566.731 222.284C553.576 216.708 548.542 208.974 535.353 203.479C519.142 196.724 508.829 196.196 491.424 193.835C446.078 187.684 386.671 197.693 374.602 202.996C364.948 177.441 363.499 126.331 367.844 106.079C359.864 105.534 354.284 104.632 347.569 108.972C339.429 114.233 340.802 122.49 336.466 131.152C329.68 144.71 333.316 160.596 319.088 165.869C311.841 168.554 306.409 168.888 299.296 165.869C291.93 162.743 292.102 155.127 285.296 150.921C278.908 146.973 274.458 144.813 266.952 145.135C260.339 145.419 257.448 152.51 251.022 150.921C245.07 149.449 242.283 145.483 239.919 139.831C237.521 134.097 240.885 124.884 239.919 123.919C238.954 123.111 235.586 122.164 232.678 121.508C228.334 119.097 209.173 139.063 192.128 137.902C186.151 137.495 183.439 135.974 177.164 134.527C167.843 131.215 157.372 121.508 155.441 121.508C151.579 121.026 122.18 122.692 100.892 123.919C86.7448 124.735 78.606 123.679 64.6865 126.33C48.6407 129.387 31.3778 136.456 25.1022 139.831Z" fill="#13120D"/>
<path d="M653.141 92.0947C653.141 92.0947 653.141 243.018 641.555 300.878C636.494 279.394 619.349 202.997 619.151 188.532C611.819 141.792 594.697 94.1746 590.868 75.2185C616.065 74.9382 653.141 92.0947 653.141 92.0947Z" fill="#FFFBB4" fill-opacity="0.85"/>
<path d="M190.197 326.435C195.66 294.723 200.818 283.039 228.816 253.626C254.884 272.431 264.712 282.947 271.779 309.558C277.99 332.941 266.469 371.277 266.469 371.277H190.197C190.197 371.277 187.225 343.693 190.197 326.435Z" fill="#FEFDFD"/>
<path d="M259.711 331.489C259.711 344.088 247.936 352.954 238.123 352.954C223.403 352.954 199.852 336.155 199.852 328.69C199.852 317.025 211.136 309.558 229.291 309.558C243.52 309.558 259.711 325.89 259.711 331.489Z" fill="#13120D"/>
<path d="M548.869 110.419C548.869 110.419 534.257 105.324 525.215 107.526C517.236 109.469 510.382 110.99 507.354 118.616C505.478 123.342 504.984 127.135 507.354 131.635C510.377 137.374 516.03 137.259 522.319 138.868C530.172 140.876 535.473 141.674 543.077 138.868C547.444 137.256 550.777 136.562 553.214 132.599C555.405 129.037 555.643 126.056 554.662 121.991C552.439 112.778 541.456 113.631 531.974 113.312C523.381 113.023 517.463 113.754 510.733 119.098C508.123 121.172 504.953 122.035 504.941 125.367C504.927 129.104 509.049 129.59 512.182 131.635C518.923 136.036 523.924 137.671 531.974 137.421C540.443 137.158 552.551 138.164 552.249 129.706C552.131 126.42 550.629 124.771 548.869 121.991C546.305 117.94 544.416 115.565 540.18 113.312C533.358 109.684 527.074 109.438 520.388 113.312C514.509 116.719 509.24 121.154 510.733 127.778C512.514 135.679 522.425 134.412 530.526 134.046C535.596 133.816 538.984 133.67 543.077 130.671C544.796 129.411 547.08 128.939 546.939 126.813C546.805 124.816 545.527 124.756 543.077 123.438C540.626 122.12 539.252 121.381 536.801 120.063C534.35 118.745 524.387 114.73 518.94 119.098C516.616 120.962 514.498 122.391 514.595 125.367C514.736 129.662 520.063 129.679 524.25 130.671C529.033 131.804 532.206 131.451 536.801 129.706C539.009 128.868 540.528 128.564 542.111 126.813C546.548 121.906 532.795 120.747 526.181 121.027C522.48 121.184 520.307 121.755 517.009 123.438" stroke="#13120D"/>
<path d="M133.235 271.466C177.646 270.502 199.089 259.051 237.506 241.089C279.944 221.247 304.606 195.282 335.983 172.62C364.465 184.192 369.775 206.372 371.223 250.733C371.223 263.269 356.258 271.466 356.258 271.466M356.258 271.466C356.258 271.466 343.422 269.574 340.811 263.269C337.933 256.323 340.623 244.223 348.052 245.429C353.374 246.292 357.363 251.248 356.258 256.519C355.546 259.917 353.105 265.529 350.465 263.269C348.462 261.554 348.462 258.234 350.465 256.519M356.258 271.466C356.258 271.466 376.499 278.774 389.084 275.806C402.992 272.526 405.086 258.944 418.531 254.108C423.995 252.142 427.221 250.304 433.013 250.733C444.231 251.562 448.943 269.538 455.219 269.055C463.184 267.416 461.876 256.321 469.701 254.108C484.666 250.733 485.631 252.661 489.01 258.448C495.769 269.055 501.812 272.12 512.664 275.806C537.284 280.146 545.171 259.199 567.696 258.448C598.748 257.411 604.867 282.074 642.52 285.45" stroke="#13120D"/>
<path fill-rule="evenodd" clip-rule="evenodd" d="M146.952 88.3411C144.033 89.405 142.075 91.5479 142.002 94.7544C141.983 95.5777 142.096 96.337 142.321 97.0309C141.855 97.0779 141.396 97.1794 140.952 97.3411C138.033 98.405 136.075 100.548 136.002 103.754C135.927 107.06 137.964 109.333 140.952 110.488C141.642 110.755 142.357 110.914 143.075 110.974C143.464 113.624 145.346 115.481 147.952 116.488C151.321 117.791 155.304 116.535 157.094 113.542C161.067 114.986 165.833 112.922 166.852 108.678C167.412 106.346 166.324 104.008 164.527 102.347C165.144 101.596 165.607 100.701 165.852 99.6784C167.056 94.6681 160.652 89.6285 155.952 91.3411C155.822 91.3886 155.693 91.4382 155.567 91.49C153.589 88.8804 149.929 87.2564 146.952 88.3411Z" fill="#FEA8F0"/>
<path fill-rule="evenodd" clip-rule="evenodd" d="M38.9521 391.341C36.0328 392.405 34.0753 394.548 34.002 397.754C33.9832 398.578 34.0955 399.337 34.3209 400.031C33.8547 400.078 33.3958 400.179 32.9521 400.341C30.0328 401.405 28.0753 403.548 28.002 406.754C27.9266 410.06 29.9635 412.333 32.9521 413.488C33.6418 413.755 34.3574 413.914 35.0746 413.974C35.464 416.624 37.3463 418.481 39.9521 419.488C43.3206 420.791 47.3039 419.535 49.0944 416.542C53.0674 417.986 57.833 415.922 58.8523 411.678C59.4124 409.346 58.3243 407.008 56.5272 405.347C57.1439 404.596 57.6068 403.701 57.8523 402.678C59.0556 397.668 52.6516 392.629 47.9521 394.341C47.8218 394.389 47.6934 394.438 47.5671 394.49C45.589 391.88 41.9287 390.256 38.9521 391.341Z" fill="#FEA8F0"/>
<path fill-rule="evenodd" clip-rule="evenodd" d="M601.952 148.341C599.033 149.405 597.075 151.548 597.002 154.754C596.983 155.578 597.096 156.337 597.321 157.031C596.855 157.078 596.396 157.179 595.952 157.341C593.033 158.405 591.075 160.548 591.002 163.754C590.927 167.06 592.964 169.333 595.952 170.488C596.642 170.755 597.357 170.914 598.075 170.974C598.464 173.624 600.346 175.481 602.952 176.488C606.321 177.791 610.304 176.535 612.094 173.542C616.067 174.986 620.833 172.922 621.852 168.678C622.412 166.346 621.324 164.008 619.527 162.347C620.144 161.596 620.607 160.701 620.852 159.678C622.056 154.668 615.652 149.629 610.952 151.341C610.822 151.389 610.693 151.438 610.567 151.49C608.589 148.88 604.929 147.256 601.952 148.341Z" fill="#FEA8F0"/>
<path fill-rule="evenodd" clip-rule="evenodd" d="M408.952 73.3411C406.033 74.405 404.075 76.5479 404.002 79.7544C403.983 80.5777 404.096 81.337 404.321 82.0309C403.855 82.078 403.396 82.1795 402.952 82.3411C400.033 83.405 398.075 85.5479 398.002 88.7544C397.927 92.0596 399.964 94.3329 402.952 95.4884C403.642 95.755 404.357 95.9144 405.075 95.9736C405.464 98.6237 407.346 100.481 409.952 101.488C413.321 102.791 417.304 101.535 419.094 98.5417C423.067 99.986 427.833 97.9222 428.852 93.6784C429.412 91.3463 428.324 89.0078 426.527 87.3469C427.144 86.5963 427.607 85.7006 427.852 84.6784C429.056 79.6681 422.652 74.6286 417.952 76.3411C417.822 76.3886 417.693 76.4383 417.567 76.49C415.589 73.8804 411.929 72.2564 408.952 73.3411Z" fill="#FFFBB4"/>
<path fill-rule="evenodd" clip-rule="evenodd" d="M26.9521 163.341C24.0328 164.405 22.0753 166.548 22.002 169.754C21.9832 170.578 22.0955 171.337 22.3209 172.031C21.8547 172.078 21.3958 172.179 20.9521 172.341C18.0328 173.405 16.0753 175.548 16.002 178.754C15.9266 182.06 17.9635 184.333 20.9521 185.488C21.6418 185.755 22.3574 185.914 23.0746 185.974C23.464 188.624 25.3463 190.481 27.9521 191.488C31.3206 192.791 35.3039 191.535 37.0944 188.542C41.0674 189.986 45.833 187.922 46.8523 183.678C47.4124 181.346 46.3243 179.008 44.5272 177.347C45.1439 176.596 45.6068 175.701 45.8523 174.678C47.0556 169.668 40.6516 164.629 35.9521 166.341C35.8218 166.389 35.6934 166.438 35.5671 166.49C33.589 163.88 29.9287 162.256 26.9521 163.341Z" fill="#FFFBB4"/>
</svg>
