<svg width="281" height="180" viewBox="0 0 281 180" fill="none" xmlns="http://www.w3.org/2000/svg">
<path d="M177.251 69.8944C206.952 83.0792 228.978 95.8966 232.193 134.562C232.193 134.562 164.247 136.211 144.528 136.211C124.809 136.211 50.6474 134.562 50.6474 134.562C47.7896 96.421 105.09 68.6207 105.09 68.6207C105.09 68.6207 151.295 58.3724 177.251 69.8944Z" fill="#13120D"/>
<path d="M39.0272 141.476C38.9915 142.571 38.6861 143.25 38.1626 143.859L39.9487 144.105C40.316 143.459 40.5636 142.621 40.5993 141.527C40.6829 138.961 39.2114 137.755 36.1615 137.657L19.0571 137.105L19 138.857L36.1359 139.41C38.4311 139.484 39.0659 140.287 39.0272 141.476Z" fill="#13120D"/>
<path d="M21.9682 116.358L37.2969 119.422C40.3811 120.038 41.3791 121.77 40.9951 123.673C40.611 125.575 39.0182 126.79 35.934 126.173L20.6053 123.11L20.2584 124.828L35.5871 127.892C39.6274 128.699 41.9115 127.08 42.5372 123.981C43.1629 120.882 41.6841 118.511 37.6438 117.703L22.3151 114.64L21.9682 116.358Z" fill="#13120D"/>
<path d="M45.734 110.341L46.4319 108.731L29.5054 101.465L48.2638 104.507L48.9368 102.955L33.5975 91.8702L50.5818 99.161L51.2796 97.5516L31.6668 89.1324L30.6449 91.4891L45.8149 102.569L27.1431 99.5649L26.1212 101.922L45.734 110.341Z" fill="#13120D"/>
<path d="M42.2611 74.3425C43.3828 72.7549 45.3321 72.2818 47.9056 74.0819L55.9866 79.7343C58.5601 81.5344 58.7726 83.5195 57.6509 85.1071C56.5292 86.6947 54.5799 87.1677 52.0063 85.3676L43.9254 79.7153C41.3518 77.9152 41.1394 75.93 42.2611 74.3425ZM40.9486 73.4244C39.1213 76.0106 39.5409 78.7911 42.9122 81.1492L50.9932 86.8016C54.3645 89.1597 57.1104 88.5934 58.9377 86.0072C60.765 83.4209 60.3711 80.6585 56.9997 78.3003L48.9188 72.648C45.5474 70.2898 42.7759 70.8382 40.9486 73.4244Z" fill="#13120D"/>
<path d="M52.4657 59.802L67.4008 74.9963L68.6603 73.7707L63.7552 68.7806L62.719 63.966L73.3158 69.2405L74.7102 67.8836L62.4073 61.9926L60.0674 52.4048L58.6955 53.7398L61.8636 66.8561L53.7251 58.5764L52.4657 59.802Z" fill="#13120D"/>
<path d="M81.343 62.7284L88.4274 57.9537L87.5453 56.658L81.9194 60.4497L77.1206 53.4009L81.4963 50.4518L80.6141 49.1561L76.2385 52.1052L71.7043 45.4451L77.3041 41.671L76.422 40.3752L69.3636 45.1324L81.343 62.7284Z" fill="#13120D"/>
<path d="M104.41 50.0005L106.146 49.4418L105.6 43.7948L111.167 42.0032L114.018 46.9085L115.754 46.3498L104.362 27.679L102.656 28.2281L104.41 50.0005ZM104.327 30.5196L110.384 40.6105L105.385 42.2191L104.327 30.5196Z" fill="#13120D"/>
<path d="M125.309 42.9043L123.041 24.9224L126.194 24.5288C128.129 24.2871 129.796 25.4355 130.188 28.5412L131.339 37.6719C131.731 40.7776 130.397 42.269 128.462 42.5107L125.309 42.9043ZM128.658 44.0635C131.81 43.6699 133.6 41.5221 133.087 37.4536L131.936 28.3229C131.423 24.2545 129.151 22.5823 125.998 22.9759L121.098 23.5878L123.757 44.6754L128.658 44.0635Z" fill="#13120D"/>
<path d="M142.583 43.2243L151.128 43.6665L151.21 42.1036L144.424 41.7524L144.869 33.2502L150.147 33.5233L150.228 31.9604L144.95 31.6873L145.37 23.6539L152.125 24.0035L152.206 22.4406L143.693 22L142.583 43.2243Z" fill="#13120D"/>
<path d="M168.556 26.4682C170.455 26.9102 171.625 28.5325 170.908 31.5803L168.658 41.1502C167.941 44.198 166.17 45.1358 164.271 44.6937C162.372 44.2516 161.202 42.6294 161.919 39.5816L164.169 30.0117C164.886 26.9639 166.657 26.0261 168.556 26.4682ZM168.922 24.9138C165.828 24.1937 163.392 25.6198 162.454 29.6124L160.204 39.1823C159.265 43.1749 160.819 45.4975 163.912 46.2176C167.006 46.9377 169.434 45.542 170.373 41.5495L172.623 31.9795C173.562 27.987 172.015 25.6339 168.922 24.9138Z" fill="#13120D"/>
<path d="M177.38 49.9631L184.734 53.0717L185.349 51.6313L179.616 49.208L187.353 31.0875L185.732 30.4021L177.38 49.9631Z" fill="#13120D"/>
<path d="M191.432 56.5048L192.959 57.499L197.035 53.5321L201.93 56.7206L199.881 62.0074L201.408 63.0017L208.868 42.4595L207.368 41.4824L191.432 56.5048ZM206.623 44.2146L202.529 55.2397L198.133 52.377L206.623 44.2146Z" fill="#13120D"/>
<path d="M215.339 75.5586L218.534 79.3464C220.436 81.5998 222.882 81.9677 225.484 79.7942L226.809 78.6874C229.17 76.7151 228.572 74.8858 228.242 74.0574L228.339 73.9769C229.069 74.3069 230.788 75.0782 232.643 73.5286L234.33 72.1198C236.643 70.1879 236.674 67.7912 234.813 65.5857L231.698 61.8938L215.339 75.5586ZM231.626 64.2425L233.467 66.4241C234.701 67.8864 234.811 69.429 233.173 70.7975L231.534 72.166C229.848 73.5747 228.246 72.7469 227.477 71.8359L225.434 69.4147L231.626 64.2425ZM224.23 70.4209L226.272 72.8422C227.162 73.897 227.7 75.6544 225.628 77.3851L224.351 78.4518C222.424 80.0618 220.892 79.7066 219.597 78.1723L217.676 75.8949L224.23 70.4209Z" fill="#13120D"/>
<path d="M226.489 90.0651L230.771 97.4359L232.133 96.6527L228.732 90.7994L236.14 86.5386L238.785 91.0912L240.147 90.3079L237.502 85.7554L244.501 81.7296L247.886 87.5558L249.248 86.7726L244.982 79.4288L226.489 90.0651Z" fill="#13120D"/>
<path d="M234.296 105.037L237.134 112.469L238.604 111.914L236.392 106.12L254.89 99.1293L254.265 97.4907L234.296 105.037Z" fill="#13120D"/>
<path d="M239.154 120.422L240.779 128.206L242.319 127.888L241.052 121.82L260.426 117.817L260.068 116.1L239.154 120.422Z" fill="#13120D"/>
<path d="M262.13 140.369C262.189 142.309 260.914 143.85 257.769 143.945L247.896 144.242C244.752 144.337 243.385 142.875 243.326 140.935C243.267 138.996 244.542 137.454 247.687 137.36L257.56 137.062C260.704 136.968 262.071 138.429 262.13 140.369ZM263.733 140.321C263.637 137.161 261.626 135.186 257.507 135.31L247.633 135.608C243.514 135.732 241.658 137.823 241.754 140.983C241.85 144.143 243.83 146.119 247.949 145.994L257.823 145.697C261.942 145.573 263.829 143.481 263.733 140.321Z" fill="#13120D"/>
</svg>
