<svg width="400" height="405" viewBox="0 0 400 405" fill="none" xmlns="http://www.w3.org/2000/svg">
<g clip-path="url(#clip0)">
<path d="M136.137 67.3551C135.66 67.075 135.315 66.6236 135.178 66.0986L118.112 10.2327C117.913 9.69569 117.938 9.10485 118.18 8.58489C118.304 8.34796 118.48 8.1397 118.694 7.97413C118.909 7.80856 119.157 7.68952 119.423 7.62503L140.912 1.43327C147.61 -0.489212 153.32 -0.472733 158.042 1.4827C162.765 3.43814 166.019 7.32704 167.804 13.1494C169.129 17.4832 169.1 21.3694 167.72 24.8079C166.339 28.2464 163.819 31.0807 160.16 33.3107L180.711 52.2609C180.963 52.5032 181.152 52.7996 181.263 53.126C181.332 53.3494 181.354 53.5841 181.326 53.8158C181.298 54.0474 181.222 54.2711 181.102 54.4731C180.992 54.6813 180.84 54.8657 180.655 55.0152C180.47 55.1646 180.255 55.2759 180.024 55.3424L176.14 56.4382C175.413 56.6979 174.614 56.6979 173.887 56.4382C173.175 56.1236 172.533 55.6772 171.998 55.124L152.372 36.9566L136.668 41.4881L143.459 63.734C143.547 63.9966 143.576 64.2744 143.544 64.5488C143.511 64.8231 143.419 65.0875 143.272 65.3242C142.979 65.8087 142.502 66.1623 141.944 66.3087L137.699 67.5446C137.44 67.6236 137.167 67.6476 136.897 67.6149C136.628 67.5822 136.368 67.4936 136.137 67.3551ZM149.329 30.1922C158.205 27.6408 161.536 22.7426 159.32 15.4976C157.104 8.25258 151.561 5.90853 142.691 8.46543L127.886 12.7251L134.546 34.456L149.329 30.1922Z" fill="#13120D"/>
<path d="M197.362 50.5348C193.935 46.4893 192.301 41.1902 192.46 34.6372L192.608 31.6052L192.939 28.6762C193.819 22.299 196.274 17.3555 200.303 13.8456C204.333 10.3357 209.466 8.81422 215.702 9.28111C222.419 9.78644 227.462 12.2582 230.829 16.6964C234.196 21.1346 235.592 26.9089 235.018 34.0193L234.891 35.6177C234.876 35.8877 234.805 36.1519 234.681 36.3943C234.558 36.6366 234.385 36.8519 234.173 37.0271C233.961 37.2022 233.714 37.3334 233.447 37.4126C233.181 37.4919 232.901 37.5175 232.624 37.488L200.817 35.0863L200.758 35.8896C200.633 39.7593 201.592 43.1428 203.635 46.0403C205.678 48.9378 208.563 50.5279 212.289 50.8108C215.159 51.0305 217.54 50.6584 219.433 49.6944C221.065 48.921 222.54 47.8657 223.783 46.58C224.161 46.0977 224.633 45.6919 225.171 45.3853C225.683 45.2438 226.219 45.2088 226.746 45.2823L230.782 45.583C231.294 45.6134 231.781 45.8092 232.166 46.1392C232.343 46.2861 232.481 46.4719 232.569 46.6812C232.656 46.8904 232.692 47.117 232.671 47.3421C232.566 48.6466 231.614 50.1572 229.814 51.8737C228.015 53.5902 225.545 54.9977 222.404 56.0962C219.015 57.2417 215.412 57.6632 211.84 57.3321C205.617 56.8488 200.792 54.583 197.362 50.5348ZM226.873 30.9708L226.894 30.703C227.225 26.5532 226.335 23.0845 224.225 20.2969C222.114 17.5093 219.102 15.97 215.188 15.6788C211.227 15.3767 208.005 16.4465 205.524 18.888C203.042 21.3296 201.642 24.6252 201.322 28.7751V29.0428L226.873 30.9708Z" fill="#13120D"/>
<path d="M249.712 62.5558C247.963 60.6036 246.761 58.247 246.223 55.7131C245.715 53.3212 246.001 50.8345 247.042 48.6109C248.695 45.0406 251.557 42.7638 255.629 41.7806C259.7 40.7974 264.511 41.0652 270.059 42.584L283.433 46.341L284.524 43.9805C287.11 38.3778 285.079 34.1278 278.429 31.2303C275.857 30.1125 273.555 29.7157 271.524 30.0398C269.671 30.2877 267.916 30.9974 266.43 32.0996C266.096 32.4568 265.676 32.7285 265.208 32.8905C264.806 32.9625 264.39 32.9016 264.028 32.7175L260.756 31.2962C260.269 31.0796 259.89 30.6862 259.699 30.2008C259.509 29.7154 259.522 29.1768 259.737 28.7009C260.303 27.4513 261.576 26.2607 263.557 25.1292C265.538 23.9977 268.062 23.3674 271.129 23.2383C274.207 23.1092 277.565 23.8357 281.201 25.4176C287.465 28.142 291.304 31.505 292.716 35.5065C294.128 39.508 293.856 43.6276 291.901 47.8653L279.702 74.3172C279.597 74.5691 279.439 74.7972 279.238 74.9874C279.038 75.1775 278.799 75.3257 278.537 75.4226C278.275 75.5196 277.996 75.5633 277.716 75.551C277.436 75.5387 277.161 75.4707 276.91 75.3512L273.217 73.7446C272.962 73.6466 272.732 73.4965 272.543 73.3046C272.353 73.1127 272.208 72.8834 272.118 72.6323C271.944 72.117 271.987 71.556 272.237 71.071L273.888 67.4869C271.632 68.7983 269.071 69.5325 266.443 69.6209C263.543 69.7939 260.246 69.0785 256.554 67.4746C253.918 66.3606 251.578 64.6785 249.712 62.5558ZM271.655 62.7082C275.082 61.3954 277.821 58.5117 279.872 54.057L280.925 51.7789L270.471 48.8952C266.193 47.6895 262.718 47.2872 260.047 47.6881C257.376 48.0891 255.589 49.2687 254.686 51.2269C254.175 52.2294 253.947 53.3455 254.025 54.4615C254.104 55.5775 254.485 56.6533 255.132 57.5793C256.557 59.6721 258.591 61.3056 260.976 62.2715C264.669 63.8754 268.223 64.021 271.638 62.7082H271.655Z" fill="#13120D"/>
<path d="M296.62 82.0703C297.226 76.995 299.662 72.1586 303.929 67.5611L305.788 65.5796L307.779 63.7257C312.36 59.5045 317.278 57.0328 322.532 56.3105C327.787 55.5882 332.697 57.387 337.264 61.7071C341.831 66.0217 343.812 70.9652 343.206 76.5377L358.023 61.7689C358.211 61.5695 358.439 61.4095 358.693 61.299C358.947 61.1884 359.222 61.1296 359.501 61.1261C359.779 61.1226 360.055 61.1746 360.312 61.2788C360.569 61.383 360.801 61.5372 360.994 61.7319L363.965 64.5332C364.171 64.7156 364.335 64.9368 364.449 65.1832C364.563 65.4297 364.624 65.6961 364.628 65.9661C364.632 66.2362 364.579 66.5042 364.472 66.7537C364.366 67.0032 364.208 67.2289 364.008 67.4169L321.42 109.849C321.232 110.047 321.003 110.206 320.75 110.316C320.496 110.426 320.222 110.484 319.944 110.488C319.666 110.492 319.39 110.441 319.133 110.338C318.876 110.235 318.643 110.083 318.449 109.89L315.618 107.212C315.414 107.034 315.252 106.816 315.142 106.573C315.033 106.329 314.978 106.065 314.981 105.799C315.006 105.258 315.243 104.747 315.644 104.37L318.402 101.622C312.65 102.495 307.402 100.691 302.66 96.2088C298.031 91.8585 296.018 87.1457 296.62 82.0703ZM318.784 95.9863C322.4 95.4101 325.747 93.7709 328.372 91.29C328.887 90.8615 329.722 90.072 330.877 88.9212C332.073 87.7265 332.884 86.8614 333.313 86.3671C335.749 83.8717 337.245 80.6502 337.557 77.2257C337.854 73.8146 336.512 70.6975 333.529 67.8742C330.369 64.8888 327.1 63.6694 323.725 64.216C320.349 64.7625 317.036 66.5298 313.785 69.5179L311.862 71.3099C303.656 79.4914 302.666 86.5291 308.891 92.4229C311.961 95.3231 315.259 96.5109 318.784 95.9863Z" fill="#13120D"/>
<path d="M343.206 144.186C343.368 143.964 343.574 143.777 343.813 143.635C344.051 143.493 344.317 143.4 344.594 143.362L387.462 135.74C387.736 135.682 388.019 135.679 388.295 135.732C388.57 135.784 388.831 135.891 389.062 136.045C389.293 136.2 389.488 136.399 389.637 136.63C389.785 136.861 389.883 137.119 389.924 137.388L390.62 141.075C390.682 141.334 390.685 141.603 390.629 141.864C390.573 142.124 390.46 142.369 390.297 142.583C389.957 143.012 389.457 143.296 388.905 143.374L385.811 143.918C390.443 146.359 393.273 150.272 394.3 155.655C395.514 162.095 393.602 167.152 388.566 170.827C391.386 171.8 393.874 173.511 395.756 175.771C397.784 178.169 399.132 181.041 399.665 184.1C400.573 188.898 399.625 193.12 396.821 196.764C394.017 200.409 389.422 202.794 383.035 203.92L356.899 208.567C356.625 208.626 356.342 208.629 356.066 208.577C355.791 208.525 355.53 208.418 355.3 208.263C355.069 208.108 354.874 207.909 354.726 207.678C354.578 207.447 354.481 207.188 354.441 206.919L353.728 203.145C353.667 202.88 353.664 202.605 353.718 202.338C353.771 202.071 353.882 201.817 354.041 201.593C354.2 201.369 354.405 201.18 354.644 201.036C354.882 200.893 355.148 200.799 355.426 200.76L380.748 196.257C385.558 195.401 388.826 193.821 390.552 191.52C392.278 189.218 392.844 186.488 392.25 183.33C392.007 181.97 391.474 180.673 390.686 179.524C389.897 178.375 388.87 177.398 387.67 176.656C385.149 175.008 381.538 174.608 376.839 175.453L351.517 179.956C351.243 180.014 350.96 180.017 350.684 179.965C350.409 179.913 350.148 179.806 349.917 179.651C349.686 179.497 349.491 179.298 349.342 179.067C349.194 178.836 349.096 178.578 349.055 178.308L348.329 174.444C348.269 174.178 348.266 173.904 348.32 173.637C348.374 173.37 348.484 173.117 348.644 172.893C348.803 172.669 349.008 172.48 349.246 172.336C349.484 172.193 349.75 172.098 350.027 172.059L375.345 167.556C380.107 166.708 383.361 165.087 385.107 162.695C385.955 161.54 386.548 160.227 386.849 158.839C387.149 157.451 387.152 156.018 386.855 154.629C386.615 153.272 386.089 151.979 385.309 150.83C384.528 149.68 383.512 148.7 382.322 147.951C379.829 146.303 376.233 145.899 371.533 146.74L346.122 151.271C345.848 151.329 345.565 151.331 345.29 151.279C345.015 151.227 344.753 151.12 344.522 150.967C344.293 150.811 344.1 150.612 343.954 150.381C343.808 150.15 343.712 149.892 343.673 149.624L342.943 145.763C342.873 145.497 342.86 145.219 342.905 144.948C342.95 144.676 343.053 144.417 343.206 144.186Z" fill="#13120D"/>
<path d="M354.798 226.697C359.5 224.126 365.16 223.484 371.775 224.769L374.827 225.441L377.743 226.265C384.058 228.214 388.649 231.421 391.516 235.884C394.382 240.347 395.034 245.515 393.472 251.39C391.791 257.726 388.411 262.12 383.332 264.573C378.253 267.025 372.147 267.355 365.014 265.561L363.414 265.149C363.14 265.091 362.881 264.978 362.654 264.818C362.427 264.658 362.237 264.454 362.094 264.22C361.952 263.985 361.86 263.725 361.826 263.454C361.792 263.184 361.815 262.91 361.894 262.649L369.852 232.666L369.054 232.465C365.15 231.674 361.549 232.002 358.253 233.449C354.956 234.896 352.842 237.378 351.911 240.893C351.19 243.601 351.153 245.943 351.801 247.917C352.302 249.613 353.118 251.206 354.208 252.618C354.631 253.063 354.961 253.583 355.18 254.15C355.231 254.664 355.173 255.183 355.01 255.674L354 259.477C353.887 259.965 353.605 260.401 353.202 260.713C353.023 260.857 352.81 260.958 352.583 261.005C352.355 261.052 352.119 261.045 351.895 260.985C350.587 260.66 349.221 259.489 347.794 257.471C346.368 255.452 345.367 252.852 344.789 249.672C344.225 246.237 344.429 242.725 345.388 239.373C346.961 233.493 350.098 229.268 354.798 226.697ZM369.526 258.299L369.793 258.369C373.944 259.407 377.622 259.158 380.828 257.623C384.034 256.088 386.12 253.479 387.084 249.796C388.08 246.05 387.556 242.786 385.51 240.003C383.464 237.221 380.364 235.31 376.21 234.269L375.943 234.199L369.526 258.299Z" fill="#13120D"/>
<path d="M339.038 307.861C339.311 307.843 339.585 307.883 339.841 307.977C340.097 308.072 340.328 308.219 340.52 308.409L342.947 310.593C343.159 310.772 343.33 310.992 343.451 311.237C343.572 311.483 343.64 311.75 343.652 312.022C343.661 312.294 343.613 312.565 343.51 312.818C343.407 313.071 343.252 313.301 343.054 313.493L324.268 333.106C324.085 333.309 323.86 333.474 323.609 333.59C323.358 333.706 323.084 333.771 322.806 333.781C322.528 333.791 322.251 333.746 321.991 333.648C321.732 333.551 321.496 333.403 321.297 333.213L318.874 331.026C318.664 330.854 318.496 330.64 318.379 330.399C318.263 330.158 318.201 329.896 318.199 329.629C318.208 329.088 318.433 328.571 318.827 328.188L337.6 308.558C337.967 308.151 338.483 307.901 339.038 307.861Z" fill="#13120D"/>
<path d="M265.323 337.35C265.8 337.624 266.15 338.067 266.299 338.585L284.057 394.245C284.256 394.781 284.238 395.37 284.006 395.893C283.884 396.132 283.712 396.342 283.499 396.51C283.287 396.679 283.04 396.801 282.775 396.87L261.35 403.308C254.672 405.316 248.961 405.367 244.215 403.461C239.47 401.555 236.174 397.71 234.326 391.926C232.948 387.603 232.927 383.717 234.262 380.268C235.598 376.818 238.085 373.954 241.724 371.674L220.927 352.979C220.672 352.74 220.479 352.447 220.362 352.122C220.229 351.67 220.281 351.185 220.507 350.769C220.733 350.353 221.116 350.038 221.576 349.89L225.438 348.728C226.164 348.464 226.961 348.455 227.692 348.703C228.408 349.012 229.056 349.452 229.598 350.001L249.47 367.942L265.102 363.241L258.056 341.078C257.964 340.816 257.931 340.538 257.96 340.263C257.988 339.988 258.078 339.722 258.222 339.484C258.51 338.996 258.982 338.637 259.538 338.482L263.752 337.218C264.008 337.129 264.281 337.094 264.552 337.117C264.823 337.14 265.086 337.219 265.323 337.35ZM252.59 374.661C243.747 377.317 240.478 382.26 242.781 389.491C245.084 396.723 250.656 398.994 259.495 396.305L274.248 391.868L267.343 370.228L252.59 374.661Z" fill="#13120D"/>
<path d="M204.306 354.878C207.781 358.883 209.478 364.163 209.399 370.718L209.284 373.75L208.996 376.684C208.192 383.069 205.797 388.043 201.81 391.605C197.823 395.167 192.712 396.747 186.475 396.346C179.747 395.918 174.673 393.507 171.255 389.112C167.837 384.718 166.37 378.962 166.854 371.843L166.964 370.24C166.973 369.969 167.039 369.701 167.158 369.455C167.277 369.209 167.448 368.989 167.658 368.81C167.869 368.63 168.115 368.494 168.382 368.411C168.649 368.327 168.93 368.298 169.209 368.325L201.042 370.36L201.097 369.561C201.179 365.688 200.18 362.316 198.101 359.443C196.021 356.57 193.116 355.013 189.387 354.771C186.515 354.59 184.138 354.99 182.256 355.97C180.634 356.765 179.173 357.838 177.944 359.138C177.571 359.624 177.104 360.034 176.569 360.345C176.059 360.494 175.522 360.536 174.994 360.469L170.958 360.213C170.446 360.191 169.956 360.001 169.57 359.674C169.39 359.53 169.249 359.347 169.159 359.139C169.068 358.93 169.032 358.704 169.052 358.479C169.137 357.174 170.07 355.654 171.849 353.919C173.629 352.183 176.075 350.745 179.188 349.605C182.559 348.429 186.152 347.972 189.722 348.267C195.97 348.667 200.831 350.871 204.306 354.878ZM175.02 374.78V375.048C174.737 379.201 175.669 382.658 177.817 385.421C179.964 388.184 182.995 389.695 186.908 389.953C190.887 390.208 194.094 389.101 196.53 386.632C198.966 384.163 200.327 380.853 200.613 376.7V376.432L175.02 374.78Z" fill="#13120D"/>
<path d="M151.807 343.459C153.579 345.393 154.809 347.737 155.381 350.264C155.924 352.656 155.668 355.154 154.651 357.396C153.041 361.002 150.212 363.31 146.163 364.321C142.113 365.331 137.303 365.121 131.732 363.69L118.311 360.086L117.254 362.459C114.719 368.083 116.804 372.303 123.51 375.118C126.099 376.217 128.406 376.586 130.429 376.226C132.271 375.959 134.011 375.234 135.479 374.121C135.801 373.762 136.21 373.486 136.668 373.318C137.07 373.239 137.487 373.294 137.852 373.474L141.141 374.859C141.631 375.069 142.015 375.458 142.211 375.941C142.407 376.425 142.4 376.964 142.19 377.442C141.624 378.694 140.368 379.9 138.421 381.059C136.474 382.217 133.959 382.877 130.874 383.036C127.799 383.201 124.431 382.514 120.773 380.976C114.474 378.329 110.595 375.011 109.135 371.023C107.675 367.035 107.895 362.916 109.797 358.664L121.681 332.06C121.784 331.807 121.939 331.577 122.137 331.384C122.335 331.192 122.572 331.041 122.832 330.941C123.093 330.841 123.372 330.794 123.652 330.803C123.933 330.812 124.208 330.876 124.461 330.993L128.175 332.554C128.431 332.648 128.664 332.795 128.856 332.985C129.048 333.175 129.195 333.404 129.287 333.654C129.464 334.167 129.429 334.727 129.189 335.216L127.581 338.82C129.814 337.473 132.365 336.699 134.991 336.571C137.886 336.365 141.19 337.042 144.902 338.602C147.554 339.69 149.916 341.351 151.807 343.459ZM129.877 343.574C126.481 344.926 123.778 347.839 121.766 352.316L120.743 354.611L131.231 357.371C135.526 358.527 139.005 358.888 141.668 358.454C144.33 358.02 146.103 356.82 146.986 354.854C147.478 353.844 147.686 352.726 147.588 351.613C147.49 350.5 147.091 349.432 146.43 348.518C144.981 346.441 142.927 344.832 140.53 343.896C136.824 342.325 133.272 342.218 129.877 343.574Z" fill="#13120D"/>
<path d="M104.674 324.496C104.131 329.58 101.752 334.445 97.5393 339.092L95.7057 341.103L93.7363 342.981C89.209 347.257 84.3223 349.785 79.0763 350.565C73.8303 351.345 68.897 349.604 64.2763 345.342C59.6585 341.076 57.624 336.162 58.1729 330.598L43.5384 345.531C43.3525 345.732 43.1263 345.894 42.8737 346.007C42.6211 346.12 42.3474 346.182 42.0693 346.189C41.7913 346.196 41.5146 346.148 41.2564 346.047C40.9981 345.947 40.7637 345.797 40.5674 345.605L37.5666 342.837C37.3605 342.656 37.1945 342.436 37.0787 342.191C36.9629 341.945 36.8997 341.68 36.893 341.41C36.8862 341.14 36.9361 340.872 37.0395 340.622C37.1429 340.371 37.2977 340.144 37.4945 339.953L79.5602 297.019C79.7458 296.815 79.9728 296.65 80.227 296.535C80.4811 296.421 80.757 296.358 81.0372 296.351C81.3174 296.346 81.5958 296.395 81.8555 296.497C82.1153 296.599 82.3509 296.751 82.5482 296.945L85.4132 299.589C85.6204 299.764 85.7862 299.979 85.8991 300.222C86.0119 300.465 86.0692 300.728 86.0668 300.994C86.0508 301.535 85.8195 302.049 85.4216 302.428L82.6968 305.208C88.4408 304.269 93.7094 306.013 98.5027 310.44C103.157 314.73 105.214 319.416 104.674 324.496ZM82.3402 310.84C78.7295 311.457 75.4015 313.137 72.8074 315.652C72.2981 316.083 71.4733 316.881 70.333 318.045C69.1531 319.254 68.3523 320.115 67.9307 320.628C65.5287 323.153 64.0764 326.392 63.8094 329.819C63.5548 333.233 64.9356 336.333 67.9519 339.121C71.1521 342.073 74.4344 343.256 77.7988 342.668C81.1631 342.08 84.4539 340.275 87.6711 337.251L89.5769 335.438C97.6836 327.163 98.5848 320.115 92.2805 314.292C89.1736 311.422 85.8602 310.271 82.3402 310.84Z" fill="#13120D"/>
<path d="M57.3198 262.913C57.1624 263.138 56.9593 263.33 56.7228 263.477C56.4864 263.623 56.2216 263.721 55.9446 263.765L13.1786 271.893C12.9034 271.955 12.6181 271.96 12.3407 271.909C12.0633 271.858 11.7998 271.752 11.5668 271.597C11.3339 271.442 11.1366 271.242 10.9873 271.009C10.8381 270.777 10.7402 270.517 10.6999 270.245L9.95714 266.567C9.89452 266.308 9.88939 266.039 9.94209 265.779C9.99478 265.518 10.1041 265.271 10.2627 265.055C10.5961 264.616 11.0924 264.32 11.6464 264.231L14.7108 263.65C10.0505 261.261 7.17709 257.381 6.09054 252.012C4.79742 245.588 6.64654 240.507 11.6379 236.77C8.80581 235.831 6.29571 234.152 4.38431 231.917C2.33362 229.551 0.951481 226.709 0.373399 223.669C-0.588653 218.882 0.308319 214.651 3.06432 210.977C5.82031 207.302 10.3858 204.859 16.7608 203.648L42.8381 198.704C43.1111 198.643 43.3942 198.636 43.6699 198.686C43.9456 198.735 44.2078 198.839 44.4404 198.991C44.6729 199.142 44.8707 199.339 45.0215 199.568C45.1723 199.798 45.2728 200.055 45.3168 200.323L46.0765 204.089C46.14 204.354 46.1466 204.629 46.0959 204.896C46.0452 205.164 45.9383 205.418 45.7818 205.644C45.6253 205.87 45.4226 206.062 45.1864 206.208C44.9501 206.354 44.6853 206.452 44.4085 206.495L19.1419 211.286C14.3316 212.2 11.0776 213.818 9.3799 216.139C7.68217 218.459 7.15587 221.196 7.80101 224.349C8.06143 225.707 8.61127 226.996 9.41526 228.136C10.2193 229.275 11.2597 230.239 12.4698 230.965C15.0164 232.572 18.6326 232.93 23.3183 232.04L48.5807 227.245C48.8543 227.185 49.1376 227.18 49.4134 227.229C49.6892 227.279 49.9517 227.382 50.1851 227.533C50.4174 227.686 50.615 227.883 50.7654 228.112C50.9158 228.342 51.0159 228.599 51.0594 228.868L51.8361 232.72C51.9003 232.985 51.9074 233.26 51.857 233.529C51.8066 233.797 51.6998 234.052 51.5432 234.278C51.3867 234.504 51.1838 234.696 50.9472 234.843C50.7106 234.99 50.4453 235.087 50.1681 235.13L24.9142 239.925C20.1634 240.823 16.9377 242.481 15.2371 244.897C14.4022 246.062 13.8242 247.382 13.5394 248.773C13.2545 250.165 13.269 251.598 13.5818 252.984C13.8391 254.337 14.3818 255.624 15.1757 256.764C15.9696 257.904 16.9977 258.873 18.1954 259.609C20.7081 261.223 24.3101 261.586 29.0015 260.696L54.353 255.884C54.6263 255.822 54.9099 255.815 55.186 255.864C55.4622 255.913 55.725 256.017 55.958 256.169C56.191 256.321 56.3893 256.518 56.5403 256.747C56.6914 256.977 56.792 257.234 56.836 257.503L57.6127 261.355C57.675 261.621 57.6811 261.895 57.6308 262.163C57.5805 262.431 57.4747 262.686 57.3198 262.913Z" fill="#13120D"/>
<path d="M44.7226 180.553C40.0538 183.182 34.3947 183.89 27.7452 182.679L24.6893 182.045L21.7819 181.262C15.4408 179.386 10.8088 176.228 7.8859 171.787C4.96295 167.346 4.24707 162.184 5.73826 156.301C7.34262 149.952 10.6645 145.526 15.704 143.024C20.7434 140.522 26.8397 140.118 33.9929 141.813L35.6015 142.196C35.8746 142.252 36.133 142.361 36.3608 142.518C36.5886 142.674 36.7808 142.875 36.9257 143.106C37.0706 143.34 37.1649 143.599 37.2028 143.869C37.2408 144.139 37.2216 144.413 37.1464 144.676L29.5575 174.749L30.364 174.943C34.2886 175.69 37.8906 175.324 41.1701 173.847C44.4495 172.369 46.5335 169.863 47.422 166.329C48.1039 163.615 48.1039 161.281 47.422 159.325C46.9111 157.626 46.0871 156.031 44.99 154.616C44.56 154.178 44.2239 153.662 44.001 153.096C43.9402 152.582 43.9908 152.062 44.1496 151.568L45.1131 147.757C45.2222 147.271 45.4992 146.835 45.8983 146.521C46.0754 146.375 46.2864 146.272 46.5133 146.222C46.7402 146.172 46.9762 146.176 47.2013 146.233C48.5085 146.546 49.8894 147.702 51.3438 149.702C52.7982 151.701 53.8324 154.29 54.4464 157.467C55.0519 160.893 54.8912 164.406 53.9753 167.766C52.4756 173.668 49.3914 177.931 44.7226 180.553ZM29.6042 149.129L29.3368 149.067C25.1689 148.073 21.4989 148.368 18.327 149.953C15.155 151.538 13.1022 154.167 12.1684 157.842C11.2177 161.599 11.7836 164.858 13.8662 167.618C15.9487 170.378 19.0712 172.252 23.2335 173.241L23.5051 173.307L29.6042 149.129Z" fill="#13120D"/>
<path d="M59.4844 99.2079C59.2114 99.2281 58.937 99.1911 58.68 99.0995C58.4229 99.0078 58.1892 98.8635 57.9947 98.6764L55.5414 96.5178C55.3299 96.3419 55.1577 96.126 55.0351 95.8833C54.9126 95.6405 54.8425 95.3761 54.829 95.1061C54.8155 94.8361 54.8589 94.5663 54.9566 94.3132C55.0543 94.06 55.2042 93.8289 55.3971 93.634L73.9279 73.8105C74.1085 73.6044 74.3306 73.4364 74.5805 73.3168C74.8305 73.1972 75.103 73.1285 75.3814 73.115C75.6597 73.1015 75.9379 73.1434 76.1989 73.2383C76.46 73.3331 76.6982 73.4788 76.899 73.6663L79.3692 75.8003C79.5799 75.9702 79.7503 76.1821 79.869 76.4217C79.9876 76.6612 80.0517 76.9228 80.0568 77.1886C80.0578 77.7312 79.8382 78.2523 79.4456 78.6387L60.9105 98.4581C60.5532 98.878 60.0419 99.1468 59.4844 99.2079Z" fill="#13120D"/>
<circle cx="200" cy="202" r="19" stroke="#13120D" stroke-width="2"/>
</g>
<defs>
<clipPath id="clip0">
<rect width="400" height="404.866" fill="white"/>
</clipPath>
</defs>
</svg>
