<svg width="48" height="124" viewBox="0 0 48 124" fill="none" xmlns="http://www.w3.org/2000/svg">
<path d="M16.52 42.4049C16.52 43.1409 16.4027 43.7649 16.168 44.2769C15.9227 44.7782 15.6453 45.1515 15.336 45.3969C15.0267 45.6422 14.7707 45.7649 14.568 45.7649C14.4613 45.7649 14.3813 45.7275 14.328 45.6529C14.264 45.5782 14.232 45.4982 14.232 45.4129V44.7409C14.232 44.6769 14.2427 44.6289 14.264 44.5969C14.2853 44.5542 14.3333 44.5009 14.408 44.4369C14.7067 44.1915 14.9413 43.9195 15.112 43.6209C15.2827 43.3115 15.368 42.9009 15.368 42.3889C15.368 41.8129 15.2613 41.3542 15.048 41.0129C14.8347 40.6609 14.5253 40.4849 14.12 40.4849C13.8533 40.4849 13.64 40.5595 13.48 40.7089C13.32 40.8582 13.176 41.1089 13.048 41.4609C12.92 41.8022 12.7813 42.3142 12.632 42.9969C12.4293 43.9249 12.136 44.5809 11.752 44.9649C11.368 45.3489 10.872 45.5409 10.264 45.5409C9.86934 45.5409 9.49067 45.4235 9.128 45.1889C8.75467 44.9542 8.456 44.6075 8.232 44.1489C7.99734 43.6795 7.88 43.1249 7.88 42.4849C7.88 41.8129 7.992 41.2422 8.216 40.7729C8.44 40.2929 8.70133 39.9355 9 39.7009C9.29867 39.4555 9.54934 39.3329 9.752 39.3329C9.848 39.3329 9.928 39.3702 9.992 39.4449C10.056 39.5089 10.088 39.5889 10.088 39.6849V40.2929C10.088 40.4422 10.0293 40.5489 9.912 40.6129C9.70933 40.7942 9.55467 40.9489 9.448 41.0769C9.33067 41.1942 9.23467 41.3702 9.16 41.6049C9.07467 41.8395 9.032 42.1329 9.032 42.4849C9.032 43.0075 9.144 43.4075 9.368 43.6849C9.58134 43.9622 9.86934 44.1009 10.232 44.1009C10.456 44.1009 10.648 44.0422 10.808 43.9249C10.9573 43.8075 11.1013 43.5835 11.24 43.2529C11.368 42.9222 11.5013 42.4315 11.64 41.7809C11.8533 40.7675 12.1573 40.0529 12.552 39.6369C12.9467 39.2102 13.4533 38.9969 14.072 38.9969C14.5307 38.9969 14.9467 39.1302 15.32 39.3969C15.6933 39.6529 15.9867 40.0422 16.2 40.5649C16.4133 41.0769 16.52 41.6902 16.52 42.4049Z" fill="#13120D"/>
<path d="M16.52 33.7999C16.52 34.9412 16.2 35.8319 15.56 36.4719C14.9093 37.1119 14.0027 37.4479 12.84 37.4799L12.2 37.4959L11.56 37.4799C10.3973 37.4479 9.496 37.1119 8.856 36.4719C8.20533 35.8319 7.88 34.9412 7.88 33.7999C7.88 33.0319 8.01867 32.3865 8.296 31.8639C8.56267 31.3305 8.89867 30.9359 9.304 30.6799C9.70933 30.4132 10.1147 30.2692 10.52 30.2479C10.616 30.2372 10.7013 30.2745 10.776 30.3599C10.8507 30.4345 10.888 30.5199 10.888 30.6159V31.3199C10.888 31.4265 10.8667 31.5065 10.824 31.5599C10.7707 31.6132 10.68 31.6665 10.552 31.7199C10.0293 31.9119 9.66133 32.1785 9.448 32.5199C9.224 32.8505 9.112 33.2719 9.112 33.7839C9.112 34.4559 9.32 34.9892 9.736 35.3839C10.152 35.7785 10.7867 35.9919 11.64 36.0239L12.2 36.0399L12.76 36.0239C13.6133 35.9919 14.248 35.7785 14.664 35.3839C15.08 34.9892 15.288 34.4559 15.288 33.7839C15.288 33.2612 15.1813 32.8345 14.968 32.5039C14.744 32.1732 14.3707 31.9119 13.848 31.7199C13.72 31.6665 13.6347 31.6132 13.592 31.5599C13.5387 31.5065 13.512 31.4265 13.512 31.3199V30.6159C13.512 30.5199 13.5493 30.4345 13.624 30.3599C13.6987 30.2745 13.784 30.2372 13.88 30.2479C14.2747 30.2692 14.6747 30.4132 15.08 30.6799C15.4853 30.9359 15.8267 31.3305 16.104 31.8639C16.3813 32.3865 16.52 33.0319 16.52 33.7999Z" fill="#13120D"/>
<path d="M16.36 27.963C16.36 28.0697 16.328 28.1603 16.264 28.235C16.1893 28.299 16.0987 28.331 15.992 28.331L8.424 28.331C8.31733 28.331 8.22667 28.299 8.152 28.235C8.07733 28.1603 8.04 28.0697 8.04 27.963L8.04 27.291C8.04 27.1737 8.07733 27.083 8.152 27.019C8.216 26.9443 8.30667 26.907 8.424 26.907H9.128C8.40267 26.4697 8.04 25.7283 8.04 24.683V24.059C8.04 23.9417 8.072 23.851 8.136 23.787C8.2 23.723 8.29067 23.691 8.408 23.691H9C9.10667 23.691 9.19733 23.723 9.272 23.787C9.336 23.851 9.368 23.9417 9.368 24.059L9.368 24.971C9.368 25.5577 9.53867 26.0217 9.88 26.363C10.2213 26.6937 10.6853 26.859 11.272 26.859H15.992C16.0987 26.859 16.1893 26.8963 16.264 26.971C16.328 27.0457 16.36 27.1363 16.36 27.243V27.963Z" fill="#13120D"/>
<path d="M16.52 19.0956C16.52 20.269 16.1893 21.1756 15.528 21.8156C14.8667 22.445 13.9867 22.781 12.888 22.8236L12.2 22.8396L11.512 22.8236C10.4133 22.781 9.53333 22.4396 8.872 21.7996C8.21067 21.149 7.88 20.2476 7.88 19.0956C7.88 17.9436 8.21067 17.0476 8.872 16.4076C9.53333 15.757 10.4133 15.4103 11.512 15.3676C11.7467 15.3463 11.976 15.3356 12.2 15.3356C12.424 15.3356 12.6533 15.3463 12.888 15.3676C13.9867 15.4103 14.8667 15.7516 15.528 16.3916C16.1893 17.021 16.52 17.9223 16.52 19.0956ZM15.32 19.0956C15.32 18.413 15.1067 17.8743 14.68 17.4796C14.2427 17.0743 13.6187 16.8556 12.808 16.8236C12.7013 16.813 12.4987 16.8076 12.2 16.8076C11.9013 16.8076 11.6987 16.813 11.592 16.8236C10.7813 16.8556 10.1627 17.0743 9.736 17.4796C9.29867 17.8743 9.08 18.413 9.08 19.0956C9.08 19.7783 9.29867 20.3223 9.736 20.7276C10.1627 21.1223 10.7813 21.3356 11.592 21.3676L12.2 21.3836L12.808 21.3676C13.6187 21.3356 14.2427 21.1223 14.68 20.7276C15.1067 20.3223 15.32 19.7783 15.32 19.0956Z" fill="#13120D"/>
<path d="M16.36 12.9314C16.36 13.038 16.328 13.1287 16.264 13.2034C16.1893 13.2674 16.0987 13.2994 15.992 13.2994L5.368 13.2994C5.25067 13.2994 5.16 13.2674 5.096 13.2034C5.032 13.1287 5 13.038 5 12.9314L5 12.2274C5 12.1207 5.03733 12.0354 5.112 11.9714C5.176 11.8967 5.26133 11.8594 5.368 11.8594L15.992 11.8594C16.0987 11.8594 16.1893 11.8967 16.264 11.9714C16.328 12.0354 16.36 12.1207 16.36 12.2274V12.9314Z" fill="#13120D"/>
<path d="M16.36 9.072C16.36 9.17867 16.328 9.26933 16.264 9.344C16.1893 9.408 16.0987 9.44 15.992 9.44L5.368 9.44C5.25067 9.44 5.16 9.408 5.096 9.344C5.032 9.26933 5 9.17867 5 9.072L5 8.368C5 8.26133 5.03733 8.176 5.112 8.112C5.176 8.03733 5.26133 8 5.368 8L15.992 8C16.0987 8 16.1893 8.03733 16.264 8.112C16.328 8.176 16.36 8.26133 16.36 8.368V9.072Z" fill="#13120D"/>
<path d="M23.3661 1C27.1308 2.03627 23.3661 106.699 23.3661 106.699C23.3661 106.699 -4.66003 83.9016 2.03278 83.9016C3.91511 83.9016 22.1982 118.513 23.3661 121C24.4118 118.72 44.4902 81.2073 47 83.9016" stroke="#13120D" stroke-width="2"/>
</svg>
